# xmcd
#
# Track frame offsets: 
#        150
#        11896
#        22512
#        37680
#        49760
#        61674
#        72473
#        83474
#        95486
#        104291
#        115889
#        131915
#        143802
#        155169
#        172215
#        188806
#        202218
#        219795
#        234350
#        245016
#        266081
#        282016
#
# Disc length: 3950 seconds
#
# Revision: 4
# Processed by: cddbd v1.5.2PL0 Copyright (c) Steve Scherf et al.
# Submitted via: ExactAudioCopyFreeDBPlugin 1.0
#
DISCID=350f6c16
DTITLE=Brook Benton - Brook Benton:  Eight Classic Albums [Real Gone M
DTITLE=usix box set]
DYEAR=2014
DGENRE=Rhythm and Blues
TTITLE0=The Boll Weevil Song
TTITLE1=Honey Babe
TTITLE2=A Worried Man
TTITLE3=Careless Love
TTITLE4=My Last Dollar
TTITLE5=A Key to the Highway
TTITLE6=Frankie and Johnny
TTITLE7=The Intoxicated Rat
TTITLE8=Johnny-O
TTITLE9=It's My Lazy Day
TTITLE10=Child of the Engineer
TTITLE11=Four Thousand Years Ago
TTITLE12=Go Tell It on the Mountain
TTITLE13=He'll Understand and Say Well Done
TTITLE14=Just a Closer Walk with Thee
TTITLE15=Only Believe
TTITLE16=Remember Me
TTITLE17=Going Home
TTITLE18=Shadrack
TTITLE19=Steal Away
TTITLE20=The Lost Penny
TTITLE21=Deep River
EXTD=
EXTT0=
EXTT1=
EXTT2=
EXTT3=
EXTT4=
EXTT5=
EXTT6=
EXTT7=
EXTT8=
EXTT9=
EXTT10=
EXTT11=
EXTT12=
EXTT13=
EXTT14=
EXTT15=
EXTT16=
EXTT17=
EXTT18=
EXTT19=
EXTT20=
EXTT21=
PLAYORDER=
